<?xml version="1.0" encoding="UTF-8" standalone="no"?>
<!-- CoreHPC architecture diagram. Editable in draw.io (https://app.diagrams.net) -->

<!-- Reuses shape geometry from the reference HPC_diagram_drawio.xml -->

<svg
   version="1.1"
   width="503.16577"
   height="450.83887"
   viewBox="80 0 503.16577 450.83887"
   content="&lt;mxfile host=&quot;app.diagrams.net&quot; agent=&quot;Claude&quot; version=&quot;24.0.0&quot;&gt;&#10;  &lt;diagram name=&quot;CoreHPC&quot; id=&quot;corehpc-1&quot;&gt;&#10;    &lt;mxGraphModel dx=&quot;1422&quot; dy=&quot;800&quot; grid=&quot;1&quot; gridSize=&quot;10&quot; guides=&quot;1&quot; tooltips=&quot;1&quot;&#10;                  connect=&quot;1&quot; arrows=&quot;1&quot; fold=&quot;1&quot; page=&quot;1&quot; pageScale=&quot;1&quot;&#10;                  pageWidth=&quot;850&quot; pageHeight=&quot;1100&quot; math=&quot;0&quot; shadow=&quot;0&quot;&gt;&#10;      &lt;root&gt;&#10;        &lt;mxCell id=&quot;0&quot;/&gt;&#10;        &lt;mxCell id=&quot;1&quot; parent=&quot;0&quot;/&gt;&#10;        &lt;mxCell id=&quot;login&quot; value=&quot;Login Node&#10;(chpc-ucsf-login-vm1)&quot; style=&quot;sketch=0;pointerEvents=1;shadow=0;dashed=0;html=1;strokeColor=none;labelPosition=center;verticalLabelPosition=bottom;verticalAlign=top;outlineConnect=0;align=center;shape=mxgraph.office.servers.physical_host_farm;fillColor=#ED7953;fontSize=13;&quot; vertex=&quot;1&quot; parent=&quot;1&quot;&gt;&#10;          &lt;mxGeometry x=&quot;70&quot; y=&quot;70&quot; width=&quot;80&quot; height=&quot;69&quot; as=&quot;geometry&quot;/&gt;&#10;        &lt;/mxCell&gt;&#10;        &lt;mxCell id=&quot;compute&quot; value=&quot;Compute Nodes&#10;(SLURM partitions)&quot; style=&quot;sketch=0;pointerEvents=1;shadow=0;dashed=0;html=1;strokeColor=none;labelPosition=center;verticalLabelPosition=bottom;verticalAlign=top;outlineConnect=0;align=center;shape=mxgraph.office.servers.physical_host_farm;fillColor=#CC4778;fontSize=13;&quot; vertex=&quot;1&quot; parent=&quot;1&quot;&gt;&#10;          &lt;mxGeometry x=&quot;610&quot; y=&quot;70&quot; width=&quot;80&quot; height=&quot;69&quot; as=&quot;geometry&quot;/&gt;&#10;        &lt;/mxCell&gt;&#10;        &lt;mxCell id=&quot;bastion_g&quot; value=&quot;&quot; style=&quot;group;fontSize=13;&quot; vertex=&quot;1&quot; connectable=&quot;0&quot; parent=&quot;1&quot;&gt;&#10;          &lt;mxGeometry x=&quot;70&quot; y=&quot;230&quot; width=&quot;80&quot; height=&quot;88&quot; as=&quot;geometry&quot;/&gt;&#10;        &lt;/mxCell&gt;&#10;        &lt;mxCell id=&quot;bastion_g2&quot; value=&quot;&quot; style=&quot;group;fontSize=13;&quot; vertex=&quot;1&quot; connectable=&quot;0&quot; parent=&quot;bastion_g&quot;&gt;&#10;          &lt;mxGeometry x=&quot;0&quot; y=&quot;0&quot; width=&quot;64&quot; height=&quot;60&quot; as=&quot;geometry&quot;/&gt;&#10;        &lt;/mxCell&gt;&#10;        &lt;mxCell id=&quot;bastion_h1&quot; value=&quot;&quot; style=&quot;fontColor=#0066CC;verticalAlign=top;verticalLabelPosition=bottom;labelPosition=center;align=center;html=1;outlineConnect=0;fillColor=#9C179E;strokeColor=none;gradientColor=none;gradientDirection=north;strokeWidth=2;shape=mxgraph.office.servers.physical_host;sketch=0;pointerEvents=1;shadow=0;dashed=0;fontSize=13;&quot; vertex=&quot;1&quot; parent=&quot;bastion_g2&quot;&gt;&#10;          &lt;mxGeometry x=&quot;0&quot; y=&quot;0&quot; width=&quot;30&quot; height=&quot;60&quot; as=&quot;geometry&quot;/&gt;&#10;        &lt;/mxCell&gt;&#10;        &lt;mxCell id=&quot;bastion_h2&quot; value=&quot;&quot; style=&quot;fontColor=#0066CC;verticalAlign=top;verticalLabelPosition=bottom;labelPosition=center;align=center;html=1;outlineConnect=0;fillColor=#9C179E;strokeColor=none;gradientColor=none;gradientDirection=north;strokeWidth=2;shape=mxgraph.office.servers.physical_host;sketch=0;pointerEvents=1;shadow=0;dashed=0;fontSize=13;&quot; vertex=&quot;1&quot; parent=&quot;bastion_g2&quot;&gt;&#10;          &lt;mxGeometry x=&quot;34&quot; y=&quot;0&quot; width=&quot;30&quot; height=&quot;60&quot; as=&quot;geometry&quot;/&gt;&#10;        &lt;/mxCell&gt;&#10;        &lt;mxCell id=&quot;bastion_lbl&quot; value=&quot;Bastion Nodes&#10;(vm1 / vm2)&quot; style=&quot;text;html=1;strokeColor=none;fillColor=none;align=center;verticalAlign=middle;whiteSpace=wrap;rounded=0;fontSize=13;&quot; vertex=&quot;1&quot; parent=&quot;bastion_g&quot;&gt;&#10;          &lt;mxGeometry x=&quot;-7&quot; y=&quot;63&quot; width=&quot;90&quot; height=&quot;30&quot; as=&quot;geometry&quot;/&gt;&#10;        &lt;/mxCell&gt;&#10;        &lt;mxCell id=&quot;globus_g&quot; value=&quot;&quot; style=&quot;group;fontSize=13;&quot; vertex=&quot;1&quot; connectable=&quot;0&quot; parent=&quot;1&quot;&gt;&#10;          &lt;mxGeometry x=&quot;610&quot; y=&quot;230&quot; width=&quot;80&quot; height=&quot;93&quot; as=&quot;geometry&quot;/&gt;&#10;        &lt;/mxCell&gt;&#10;        &lt;mxCell id=&quot;globus_g2&quot; value=&quot;&quot; style=&quot;group;fontSize=13;&quot; vertex=&quot;1&quot; connectable=&quot;0&quot; parent=&quot;globus_g&quot;&gt;&#10;          &lt;mxGeometry x=&quot;0&quot; y=&quot;0&quot; width=&quot;64&quot; height=&quot;60&quot; as=&quot;geometry&quot;/&gt;&#10;        &lt;/mxCell&gt;&#10;        &lt;mxCell id=&quot;globus_h1&quot; value=&quot;&quot; style=&quot;fontColor=#0066CC;verticalAlign=top;verticalLabelPosition=bottom;labelPosition=center;align=center;html=1;outlineConnect=0;fillColor=#0d0887;strokeColor=none;gradientColor=none;gradientDirection=north;strokeWidth=2;shape=mxgraph.office.servers.physical_host;sketch=0;pointerEvents=1;shadow=0;dashed=0;fontSize=13;&quot; vertex=&quot;1&quot; parent=&quot;globus_g2&quot;&gt;&#10;          &lt;mxGeometry x=&quot;0&quot; y=&quot;0&quot; width=&quot;30&quot; height=&quot;60&quot; as=&quot;geometry&quot;/&gt;&#10;        &lt;/mxCell&gt;&#10;        &lt;mxCell id=&quot;globus_h2&quot; value=&quot;&quot; style=&quot;fontColor=#0066CC;verticalAlign=top;verticalLabelPosition=bottom;labelPosition=center;align=center;html=1;outlineConnect=0;fillColor=#0d0887;strokeColor=none;gradientColor=none;gradientDirection=north;strokeWidth=2;shape=mxgraph.office.servers.physical_host;sketch=0;pointerEvents=1;shadow=0;dashed=0;fontSize=13;&quot; vertex=&quot;1&quot; parent=&quot;globus_g2&quot;&gt;&#10;          &lt;mxGeometry x=&quot;34&quot; y=&quot;0&quot; width=&quot;30&quot; height=&quot;60&quot; as=&quot;geometry&quot;/&gt;&#10;        &lt;/mxCell&gt;&#10;        &lt;mxCell id=&quot;globus_lbl&quot; value=&quot;Globus Endpoints&#10;(User Home / User Scratch)&quot; style=&quot;text;html=1;strokeColor=none;fillColor=none;align=center;verticalAlign=middle;whiteSpace=wrap;rounded=0;fontSize=13;&quot; vertex=&quot;1&quot; parent=&quot;globus_g&quot;&gt;&#10;          &lt;mxGeometry x=&quot;-10&quot; y=&quot;63&quot; width=&quot;110&quot; height=&quot;30&quot; as=&quot;geometry&quot;/&gt;&#10;        &lt;/mxCell&gt;&#10;        &lt;mxCell id=&quot;user&quot; value=&quot;User&quot; style=&quot;points=[[0.35,0,0],[0.98,0.51,0],[1,0.71,0],[0.67,1,0],[0,0.795,0],[0,0.65,0]];verticalLabelPosition=bottom;sketch=0;html=1;verticalAlign=top;aspect=fixed;align=center;pointerEvents=1;shape=mxgraph.cisco19.user;fillColor=#24878e;strokeColor=#24878e;fontSize=13;&quot; vertex=&quot;1&quot; parent=&quot;1&quot;&gt;&#10;          &lt;mxGeometry x=&quot;340&quot; y=&quot;380&quot; width=&quot;80&quot; height=&quot;80&quot; as=&quot;geometry&quot;/&gt;&#10;        &lt;/mxCell&gt;&#10;        &lt;mxCell id=&quot;e_user_bastion&quot; style=&quot;edgeStyle=orthogonalEdgeStyle;rounded=1;orthogonalLoop=1;jettySize=auto;html=1;curved=0;strokeWidth=2;fontSize=13;&quot; edge=&quot;1&quot; parent=&quot;1&quot; source=&quot;user&quot; target=&quot;bastion_g&quot;&gt;&#10;          &lt;mxGeometry relative=&quot;1&quot; as=&quot;geometry&quot;&gt;&#10;          &lt;/mxGeometry&gt;&#10;        &lt;/mxCell&gt;&#10;        &lt;mxCell id=&quot;e_user_bastion_lbl&quot; value=&quot;SSH + MFA&quot; style=&quot;edgeLabel;html=1;align=center;verticalAlign=middle;resizable=0;points=[];fontSize=13;background=#ffffff;&quot; vertex=&quot;1&quot; connectable=&quot;0&quot; parent=&quot;e_user_bastion&quot;&gt;&#10;          &lt;mxGeometry relative=&quot;1&quot; as=&quot;geometry&quot;&gt;&lt;mxPoint as=&quot;offset&quot;/&gt;&lt;/mxGeometry&gt;&#10;        &lt;/mxCell&gt;&#10;        &lt;mxCell id=&quot;e_user_globus&quot; style=&quot;edgeStyle=orthogonalEdgeStyle;rounded=1;orthogonalLoop=1;jettySize=auto;html=1;curved=0;strokeWidth=2;fontSize=13;&quot; edge=&quot;1&quot; parent=&quot;1&quot; source=&quot;user&quot; target=&quot;globus_g&quot;&gt;&#10;          &lt;mxGeometry relative=&quot;1&quot; as=&quot;geometry&quot;&gt;&#10;          &lt;/mxGeometry&gt;&#10;        &lt;/mxCell&gt;&#10;        &lt;mxCell id=&quot;e_user_globus_lbl&quot; value=&quot;Globus&quot; style=&quot;edgeLabel;html=1;align=center;verticalAlign=middle;resizable=0;points=[];fontSize=13;background=#ffffff;&quot; vertex=&quot;1&quot; connectable=&quot;0&quot; parent=&quot;e_user_globus&quot;&gt;&#10;          &lt;mxGeometry relative=&quot;1&quot; as=&quot;geometry&quot;&gt;&lt;mxPoint as=&quot;offset&quot;/&gt;&lt;/mxGeometry&gt;&#10;        &lt;/mxCell&gt;&#10;        &lt;mxCell id=&quot;e_bastion_login&quot; style=&quot;edgeStyle=orthogonalEdgeStyle;rounded=1;orthogonalLoop=1;jettySize=auto;html=1;curved=0;strokeWidth=2;fontSize=13;&quot; edge=&quot;1&quot; parent=&quot;1&quot; source=&quot;bastion_g&quot; target=&quot;login&quot;&gt;&#10;          &lt;mxGeometry relative=&quot;1&quot; as=&quot;geometry&quot;&gt;&#10;          &lt;/mxGeometry&gt;&#10;        &lt;/mxCell&gt;&#10;        &lt;mxCell id=&quot;e_bastion_login_lbl&quot; value=&quot;SSH&quot; style=&quot;edgeLabel;html=1;align=center;verticalAlign=middle;resizable=0;points=[];fontSize=13;background=#ffffff;&quot; vertex=&quot;1&quot; connectable=&quot;0&quot; parent=&quot;e_bastion_login&quot;&gt;&#10;          &lt;mxGeometry relative=&quot;1&quot; as=&quot;geometry&quot;&gt;&lt;mxPoint as=&quot;offset&quot;/&gt;&lt;/mxGeometry&gt;&#10;        &lt;/mxCell&gt;&#10;        &lt;mxCell id=&quot;e_login_compute&quot; style=&quot;edgeStyle=orthogonalEdgeStyle;rounded=1;orthogonalLoop=1;jettySize=auto;html=1;curved=0;strokeWidth=2;fillColor=#f8cecc;strokeColor=#808080;fontSize=13;dashed=1;&quot; edge=&quot;1&quot; parent=&quot;1&quot; source=&quot;login&quot; target=&quot;compute&quot;&gt;&#10;          &lt;mxGeometry relative=&quot;1&quot; as=&quot;geometry&quot;&gt;&#10;          &lt;/mxGeometry&gt;&#10;        &lt;/mxCell&gt;&#10;        &lt;mxCell id=&quot;e_login_compute_lbl&quot; value=&quot;sbatch / SLURM jobs&quot; style=&quot;edgeLabel;html=1;align=center;verticalAlign=middle;resizable=0;points=[];fontSize=13;background=#ffffff;&quot; vertex=&quot;1&quot; connectable=&quot;0&quot; parent=&quot;e_login_compute&quot;&gt;&#10;          &lt;mxGeometry relative=&quot;1&quot; as=&quot;geometry&quot;&gt;&lt;mxPoint as=&quot;offset&quot;/&gt;&lt;/mxGeometry&gt;&#10;        &lt;/mxCell&gt;&#10;      &lt;/root&gt;&#10;    &lt;/mxGraphModel&gt;&#10;  &lt;/diagram&gt;&#10;&lt;/mxfile&gt;"
   id="svg28"
   sodipodi:docname="CoreHPC_diagram.svg"
   inkscape:version="1.3.2 (091e20e, 2023-11-25)"
   xmlns:inkscape="http://www.inkscape.org/namespaces/inkscape"
   xmlns:sodipodi="http://sodipodi.sourceforge.net/DTD/sodipodi-0.dtd"
   xmlns="http://www.w3.org/2000/svg"
   xmlns:svg="http://www.w3.org/2000/svg">
  <defs
     id="defs28" />
  <sodipodi:namedview
     id="namedview28"
     pagecolor="#ffffff"
     bordercolor="#000000"
     borderopacity="0.25"
     inkscape:showpageshadow="2"
     inkscape:pageopacity="0.0"
     inkscape:pagecheckerboard="0"
     inkscape:deskcolor="#d1d1d1"
     inkscape:zoom="1.3446697"
     inkscape:cx="204.51119"
     inkscape:cy="144.27335"
     inkscape:window-width="1920"
     inkscape:window-height="937"
     inkscape:window-x="0"
     inkscape:window-y="25"
     inkscape:window-maximized="1"
     inkscape:current-layer="g32" />
  <g
     transform="translate(94.110352,-14.921384)"
     id="g1"
     style="fill:#9c179e;fill-opacity:1">
    <path
       d="m 45.87,56.99 h 16 v -2.12 h -16 z M 41.6,64.42 V 50.69 c 0,-1.16 0.88,-2.19 2.3,-2.19 h 19.9 c 1.78,0 2.33,1.39 2.33,2.22 v 13.7 H 57.5 c -1.55,0.1 -2.72,0.7 -3.63,1.59 -0.82,-0.81 -2.12,-1.53 -3.74,-1.59 z M 18.13,56.99 h 16 v -2.12 h -16 z m -4.26,7.43 V 50.69 c 0,-1.16 0.88,-2.19 2.3,-2.19 h 19.9 c 1.78,0 2.33,1.39 2.33,2.22 v 13.7 h -8.63 c -1.55,0.1 -2.72,0.7 -3.63,1.6 -0.82,-0.8 -2.12,-1.54 -3.74,-1.6 z M 59.73,76.1 h 16 v -2.12 h -16 z m 0,29.72 h 16 v -2.12 h -16 z m 0,6.37 h 16 v -2.12 h -16 z m -4.26,5.31 V 69.73 c 0,-1.13 0.98,-2.11 2.16,-2.12 h 20.21 c 1.12,0 2.16,0.9 2.16,2.23 V 117.5 Z M 32,76.1 H 48 V 73.98 H 32 Z m 0,29.72 H 48 V 103.7 H 32 Z m 0,6.37 h 16 v -2.12 H 32 Z m -4.27,5.31 V 69.73 c 0,-1.13 0.98,-2.11 2.17,-2.12 h 20.2 c 1.13,0 2.17,0.9 2.17,2.23 V 117.5 Z M 4.27,76.1 h 16 v -2.12 h -16 z m 0,29.74 h 16 v -2.13 h -16 z m 0,6.35 h 16 v -2.12 h -16 z M 0,117.5 V 69.73 c 0,-1.12 0.98,-2.11 2.16,-2.12 h 20.21 c 1.13,0 2.16,0.9 2.16,2.23 v 47.66 z"
       fill="#ed7953"
       stroke="none"
       id="path1"
       style="fill:#9c179e;fill-opacity:1" />
  </g>
  <g
     transform="translate(144.11035,-4.4213834)"
     id="g2">
    <path
       d="m 375.87,46.49 h 16 v -2.12 h -16 z m -4.27,7.43 V 40.19 c 0,-1.16 0.88,-2.19 2.3,-2.19 h 19.9 c 1.78,0 2.33,1.39 2.33,2.22 v 13.7 h -8.63 c -1.55,0.1 -2.72,0.7 -3.63,1.59 -0.82,-0.81 -2.12,-1.53 -3.74,-1.59 z m -23.47,-7.43 h 16 v -2.12 h -16 z m -4.26,7.43 V 40.19 c 0,-1.16 0.88,-2.19 2.3,-2.19 h 19.9 c 1.78,0 2.33,1.39 2.33,2.22 v 13.7 h -8.63 c -1.55,0.1 -2.72,0.7 -3.63,1.6 -0.82,-0.8 -2.12,-1.54 -3.74,-1.6 z m 45.86,11.68 h 16 v -2.12 h -16 z m 0,29.72 h 16 V 93.2 h -16 z m 0,6.37 h 16 v -2.12 h -16 z M 385.47,107 V 59.23 c 0,-1.13 0.98,-2.11 2.16,-2.12 h 20.21 c 1.12,0 2.16,0.9 2.16,2.23 V 107 Z M 362,65.6 h 16 v -2.12 h -16 z m 0,29.72 h 16 V 93.2 h -16 z m 0,6.37 h 16 V 99.57 H 362 Z M 357.73,107 V 59.23 c 0,-1.13 0.98,-2.11 2.17,-2.12 h 20.2 c 1.13,0 2.17,0.9 2.17,2.23 V 107 Z M 334.27,65.6 h 16 v -2.12 h -16 z m 0,29.74 h 16 v -2.13 h -16 z m 0,6.35 h 16 v -2.12 h -16 z M 330,107 V 59.23 c 0,-1.12 0.98,-2.11 2.16,-2.12 h 20.21 c 1.13,0 2.16,0.9 2.16,2.23 V 107 Z"
       fill="#cc4778"
       stroke="none"
       id="path2" />
  </g>
  <g
     transform="translate(114.11035,94.578616)"
     id="g7">
    <path
       d="m 210.15,257 c -8.77,0 -15.9,6.83 -15.9,15.22 0,5.06 2.6,9.56 6.59,12.32 C 188.95,288.5 182,299.89 182,311.25 v 9.27 h 1.11 26.53 v 3.94 c 0,2.73 2.33,4.96 5.18,4.96 h 16.1 v 3.32 h -7.08 c -1.24,-0.02 -2.25,0.94 -2.25,2.12 0,1.18 1.01,2.14 2.25,2.12 h 23.96 c 1.24,0.02 2.25,-0.94 2.25,-2.12 0,-1.18 -1.01,-2.14 -2.25,-2.12 h -7.08 v -3.32 h 16.1 c 2.85,0 5.18,-2.23 5.18,-4.96 v -22.98 c 0,-2.73 -2.33,-4.96 -5.18,-4.96 h -22.59 c -0.79,-1.27 -1.7,-2.53 -2.73,-3.73 -2.96,-3.47 -6.98,-6.51 -12.07,-8.22 4.01,-2.77 6.63,-7.27 6.63,-12.35 0,-8.39 -7.14,-15.22 -15.91,-15.22 z m 0,2.55 c 7.33,0 13.25,5.65 13.25,12.67 0,7.01 -5.92,12.67 -13.25,12.67 -7.33,0 -13.24,-5.66 -13.24,-12.67 0,-7.02 5.91,-12.67 13.24,-12.67 z M 203.42,286 c 2.05,0.92 4.33,1.43 6.73,1.43 2.4,0 4.67,-0.51 6.71,-1.42 5.57,1.41 9.82,4.49 12.92,8.12 0.66,0.78 1.27,1.58 1.82,2.39 h -16.78 c -2.85,0 -5.18,2.23 -5.18,4.96 v 16.92 h -25.42 v -7.15 c 0,-11.13 7.05,-22.24 19.2,-25.25 z m 11.4,13.07 h 42 c 1.42,0 2.52,1.05 2.52,2.41 v 22.98 c 0,1.36 -1.1,2.41 -2.52,2.41 h -42 c -1.42,0 -2.52,-1.05 -2.52,-2.41 v -22.98 c 0,-1.36 1.1,-2.41 2.52,-2.41 z m 1.12,2.68 v 22.35 h 39.76 v -22.35 z"
       fill="#24878e"
       stroke="none"
       id="path7" />
  </g>
  <g
     id="g8"
     transform="translate(24.110352,-36.421384)">
    <g
       id="g38"
       transform="translate(0,76)">
      <g
         transform="translate(-4,73)"
         id="g3">
        <path
           d="m 87.83,167.3 h 18.34 v -2.59 H 87.83 Z m 0,35.14 h 18.34 v -2.58 H 87.83 Z M 82,217 v -56.62 c 0,-1.64 1.36,-3.38 3.31,-3.38 h 23.41 c 1.78,0 3.28,1.59 3.28,3.41 V 217 Z m 5.83,-6.86 h 18.34 v -2.57 H 87.83 Z"
           fill="#9c179e"
           stroke="none"
           id="path3" />
      </g>
      <g
         transform="translate(-4,73)"
         id="g4">
        <path
           d="m 121.83,167.3 h 18.34 v -2.59 h -18.34 z m 0,35.14 h 18.34 v -2.58 H 121.83 Z M 116,217 v -56.62 c 0,-1.64 1.36,-3.38 3.31,-3.38 h 23.41 c 1.78,0 3.28,1.59 3.28,3.41 V 217 Z m 5.83,-6.86 h 18.34 v -2.57 h -18.34 z"
           fill="#9c179e"
           stroke="none"
           id="path4" />
      </g>
    </g>
    <g
       id="g28"
       transform="translate(-2,-24)">
      <text
         x="110"
         y="308"
         text-anchor="middle"
         font-family="Helvetica, Arial, sans-serif"
         font-size="13px"
         font-weight="normal"
         fill="#000000"
         stroke="#ffffff"
         stroke-width="4"
         stroke-linejoin="round"
         paint-order="stroke fill"
         id="text20">Bastion Nodes</text>
      <text
         x="110"
         y="324"
         text-anchor="middle"
         font-family="Helvetica, Arial, sans-serif"
         font-size="11px"
         font-weight="normal"
         fill="#444444"
         stroke="#ffffff"
         stroke-width="4"
         stroke-linejoin="round"
         paint-order="stroke fill"
         id="text21">(vm1 / vm2)</text>
    </g>
  </g>
  <path
     d="m 300.11035,351.57861 v -45 h -108"
     fill="none"
     stroke="#000000"
     stroke-width="2"
     stroke-miterlimit="10"
     id="path8"
     sodipodi:nodetypes="ccc" />
  <path
     d="m 184.11035,306.57861 8,-4 c 0,0 0,2.66667 0,4 0,1.33333 0,4 0,4 z"
     fill="#000000"
     stroke="#000000"
     stroke-width="2"
     stroke-miterlimit="10"
     id="path9"
     sodipodi:nodetypes="ccacc" />
  <g
     id="g33"
     transform="translate(14.110352,-28.421384)">
    <rect
       x="194.5"
       y="326"
       width="77"
       height="16"
       fill="#ffffff"
       stroke="none"
       id="rect9" />
    <text
       x="233"
       y="339"
       text-anchor="middle"
       font-family="Helvetica, Arial, sans-serif"
       font-size="13px"
       fill="#000000"
       id="text9">SSH + MFA</text>
  </g>
  <path
     d="m 348.11035,351.57861 v -45 h 112"
     fill="none"
     stroke="#000000"
     stroke-width="2"
     stroke-miterlimit="10"
     id="path10"
     sodipodi:nodetypes="ccc" />
  <path
     d="m 468.11035,306.57861 -8,4 v -4 -4 z"
     fill="#000000"
     stroke="#000000"
     stroke-width="2"
     stroke-miterlimit="10"
     id="path11" />
  <rect
     x="380.02359"
     y="297.92578"
     width="46.332207"
     height="16"
     fill="#ffffff"
     stroke="none"
     id="rect11"
     style="stroke-width:0.909594" />
  <text
     x="403.11035"
     y="310.57861"
     text-anchor="middle"
     font-family="Helvetica, Arial, sans-serif"
     font-size="13px"
     fill="#000000"
     id="text11">Globus</text>
  <g
     id="g41"
     transform="translate(24.110352,-28.421384)">
    <path
       d="M 110,254 V 139"
       fill="none"
       stroke="#000000"
       stroke-width="2"
       stroke-miterlimit="10"
       id="path12"
       sodipodi:nodetypes="cc" />
    <path
       d="m 110,139 4,8 h -4 -4 z"
       fill="#000000"
       stroke="#000000"
       stroke-width="2"
       stroke-miterlimit="10"
       id="path13" />
  </g>
  <rect
     x="115.72839"
     y="149.4901"
     width="48"
     height="16"
     fill="#ffffff"
     stroke="none"
     id="rect13" />
  <text
     x="133.72839"
     y="162.4901"
     text-anchor="middle"
     font-family="Helvetica, Arial, sans-serif"
     font-size="13px"
     fill="#000000"
     id="text13">SSH</text>
  <path
     d="m 184.11035,68.078616 h 276"
     fill="none"
     stroke="#808080"
     stroke-width="2"
     stroke-miterlimit="10"
     stroke-dasharray="6, 6"
     id="path14"
     sodipodi:nodetypes="cc" />
  <path
     d="m 468.11035,68.078616 -8,4 v -4 -4 z"
     fill="#808080"
     stroke="#808080"
     stroke-width="2"
     stroke-miterlimit="10"
     id="path15" />
  <text
     x="322.11035"
     y="90.078613"
     text-anchor="middle"
     font-family="Helvetica, Arial, sans-serif"
     font-size="13px"
     fill="#000000"
     id="text15">sbatch / SLURM jobs</text>
  <g
     id="g32"
     transform="translate(24.110352,-144.42139)">
    <text
       x="110"
       y="156"
       text-anchor="middle"
       font-family="Helvetica, Arial, sans-serif"
       font-size="13px"
       font-weight="normal"
       fill="#000000"
       stroke="#ffffff"
       stroke-width="4"
       stroke-linejoin="round"
       paint-order="stroke fill"
       id="text16">Login Node</text>
    <text
       x="110"
       y="173"
       text-anchor="middle"
       font-family="Helvetica, Arial, sans-serif"
       font-size="11px"
       font-weight="normal"
       fill="#444444"
       stroke="#ffffff"
       stroke-width="4"
       stroke-linejoin="round"
       paint-order="stroke fill"
       id="text17"><tspan
         sodipodi:role="line"
         id="tspan2"
         x="110"
         y="173">(chpc-gs-login-vm1)</tspan></text>
  </g>
  <g
     id="g31"
     transform="translate(-135.88965,-144.42139)">
    <text
       x="650"
       y="156"
       text-anchor="middle"
       font-family="Helvetica, Arial, sans-serif"
       font-size="13px"
       font-weight="normal"
       fill="#000000"
       stroke="#ffffff"
       stroke-width="4"
       stroke-linejoin="round"
       paint-order="stroke fill"
       id="text18">Compute Nodes</text>
    <g
       id="g30">
      <text
         x="650"
         y="173"
         text-anchor="middle"
         font-family="Helvetica, Arial, sans-serif"
         font-size="11px"
         font-weight="normal"
         fill="#444444"
         stroke="#ffffff"
         stroke-width="4"
         stroke-linejoin="round"
         paint-order="stroke fill"
         id="text19">(SLURM partitions)</text>
    </g>
  </g>
  <g
     id="g40"
     transform="translate(-135.88965,39.578616)">
    <g
       id="g39">
      <g
         transform="translate(335,73)"
         id="g5">
        <path
           d="m 288.83,167.3 h 18.34 v -2.59 h -18.34 z m 0,35.14 h 18.34 v -2.58 H 288.83 Z M 283,217 v -56.62 c 0,-1.64 1.36,-3.38 3.31,-3.38 h 23.41 c 1.78,0 3.28,1.59 3.28,3.41 V 217 Z m 5.83,-6.86 h 18.34 v -2.57 h -18.34 z"
           fill="#0d0887"
           stroke="none"
           id="path5" />
      </g>
      <g
         transform="translate(335,73)"
         id="g6">
        <path
           d="m 322.83,167.3 h 18.34 v -2.59 h -18.34 z m 0,35.14 h 18.34 v -2.58 H 322.83 Z M 317,217 v -56.62 c 0,-1.64 1.36,-3.38 3.31,-3.38 h 23.41 c 1.78,0 3.28,1.59 3.28,3.41 V 217 Z m 5.83,-6.86 h 18.34 v -2.57 h -18.34 z"
           fill="#0d0887"
           stroke="none"
           id="path6" />
      </g>
    </g>
    <g
       id="g29"
       transform="translate(0,-100)">
      <text
         x="650"
         y="308"
         text-anchor="middle"
         font-family="Helvetica, Arial, sans-serif"
         font-size="13px"
         font-weight="normal"
         fill="#000000"
         stroke="#ffffff"
         stroke-width="4"
         stroke-linejoin="round"
         paint-order="stroke fill"
         id="text22">Globus Endpoints</text>
      <text
         x="650"
         y="324"
         text-anchor="middle"
         font-family="Helvetica, Arial, sans-serif"
         font-size="11px"
         font-weight="normal"
         fill="#444444"
         stroke="#ffffff"
         stroke-width="4"
         stroke-linejoin="round"
         paint-order="stroke fill"
         id="text23">(User Home / User Scratch)</text>
    </g>
  </g>
  <text
     x="324.11035"
     y="448.57861"
     text-anchor="middle"
     font-family="Helvetica, Arial, sans-serif"
     font-size="13px"
     font-weight="normal"
     fill="#000000"
     stroke="#ffffff"
     stroke-width="4"
     stroke-linejoin="round"
     paint-order="stroke fill"
     id="text24">User</text>
</svg>
