<?xml version="1.0" encoding="UTF-8" standalone="no"?>
<svg
   width="800"
   height="561.12463"
   viewBox="0 0 800 561.12463"
   version="1.1"
   id="svg12"
   sodipodi:docname="current_landscape.svg"
   inkscape:version="1.3.2 (091e20e, 2023-11-25)"
   xmlns:inkscape="http://www.inkscape.org/namespaces/inkscape"
   xmlns:sodipodi="http://sodipodi.sourceforge.net/DTD/sodipodi-0.dtd"
   xmlns="http://www.w3.org/2000/svg"
   xmlns:svg="http://www.w3.org/2000/svg">
  <defs
     id="defs12" />
  <sodipodi:namedview
     id="namedview12"
     pagecolor="#ffffff"
     bordercolor="#000000"
     borderopacity="0.25"
     inkscape:showpageshadow="2"
     inkscape:pageopacity="0.0"
     inkscape:pagecheckerboard="0"
     inkscape:deskcolor="#d1d1d1"
     inkscape:zoom="1.1526645"
     inkscape:cx="390.83359"
     inkscape:cy="266.33942"
     inkscape:window-width="1728"
     inkscape:window-height="961"
     inkscape:window-x="0"
     inkscape:window-y="38"
     inkscape:window-maximized="1"
     inkscape:current-layer="svg12" />
  <!-- Background -->
  <rect
     width="800"
     height="561.12463"
     fill="#ffffff"
     id="rect1"
     x="0"
     y="0"
     style="stroke-width:0.967061" />
  <!-- Data Sources Layer -->
  <rect
     x="100"
     y="30"
     width="600"
     height="80"
     rx="12"
     ry="12"
     fill="#e0e7ef"
     stroke="#3b6ea5"
     stroke-width="2"
     id="rect2" />
  <text
     x="164"
     y="22"
     text-anchor="middle"
     font-family="Helvetica, sans-serif"
     font-size="18px"
     font-weight="bold"
     fill="#3b6ea5"
     id="text2">Data Sources</text>
  <!-- Data Source Icons -->
  <!-- Slack (Font Awesome Free, CC BY 4.0) -->
  <!-- Google Drive (Font Awesome Free, CC BY 4.0) -->
  <!-- PubMed (Streamline Simple Icons) -->
  <!-- Files (Font Awesome Free, CC BY 4.0) -->
  <!-- Database (Font Awesome Free, CC BY 4.0) -->
  <g
     id="g24">
    <g
       id="icon-slack"
       transform="matrix(0.06609533,0,0,0.06609533,125.30038,44.530491)">
      <path
         d="m 94.12,315.1 c 0,25.9 -21.16,47.06 -47.06,47.06 C 21.16,362.16 0,341 0,315.1 0,289.2 21.16,268.04 47.06,268.04 h 47.06 z m 23.72,0 c 0,-25.9 21.16,-47.06 47.06,-47.06 25.9,0 47.06,21.16 47.06,47.06 v 117.84 c 0,25.9 -21.16,47.06 -47.06,47.06 -25.9,0 -47.06,-21.16 -47.06,-47.06 z M 164.9,126.12 C 139,126.12 117.84,104.96 117.84,79.06 117.84,53.16 139,32 164.9,32 c 25.9,0 47.06,21.16 47.06,47.06 v 47.06 z m 0,23.72 c 25.9,0 47.06,21.16 47.06,47.06 0,25.9 -21.16,47.06 -47.06,47.06 H 47.06 C 21.16,243.96 0,222.8 0,196.9 0,171 21.16,149.84 47.06,149.84 Z m 188.98,47.06 c 0,-25.9 21.16,-47.06 47.06,-47.06 25.9,0 47.06,21.16 47.06,47.06 0,25.9 -21.16,47.06 -47.06,47.06 h -47.06 z m -23.72,0 c 0,25.9 -21.16,47.06 -47.06,47.06 -25.9,0 -47.06,-21.16 -47.06,-47.06 V 79.06 C 236.04,53.16 257.2,32 283.1,32 309,32 330.16,53.16 330.16,79.06 Z M 283.1,385.88 c 25.9,0 47.06,21.16 47.06,47.06 0,25.9 -21.16,47.06 -47.06,47.06 -25.9,0 -47.06,-21.16 -47.06,-47.06 v -47.06 z m 0,-23.72 c -25.9,0 -47.06,-21.16 -47.06,-47.06 0,-25.9 21.16,-47.06 47.06,-47.06 h 117.84 c 25.9,0 47.06,21.16 47.06,47.06 0,25.9 -21.16,47.06 -47.06,47.06 z"
         fill="#3b6ea5"
         id="path1" />
    </g>
    <text
       x="135.1145"
       y="98.096657"
       text-anchor="middle"
       font-family="Helvetica, sans-serif"
       font-size="14.1977px"
       fill="#1e293b"
       id="label-slack"
       style="stroke-width:1.41977"
       transform="scale(1.0345272,0.96662515)">Slack</text>
  </g>
  <g
     id="g25"
     transform="translate(-0.46348742)">
    <g
       id="icon-drive"
       transform="matrix(0.05875141,0,0,0.05875141,243.14516,44.765496)">
      <path
         d="M 339,314.9 175.4,32 H 336.6 L 500.2,314.9 Z M 201.5,338.5 120.9,480 H 431.4 L 512,338.5 Z M 154.1,67.4 0,338.5 80.6,480 237,208.8 Z"
         fill="#3b6ea5"
         id="path2" />
    </g>
    <text
       x="249.30519"
       y="98.131317"
       text-anchor="middle"
       font-family="Helvetica, sans-serif"
       font-size="14.1977px"
       fill="#1e293b"
       id="label-drive"
       style="stroke-width:1.41977"
       transform="scale(1.0345272,0.96662515)">Drive</text>
  </g>
  <g
     id="g26"
     transform="translate(-0.92697656)">
    <g
       id="icon-pubmed"
       transform="matrix(1.4687852,0,0,1.4687852,367.30968,44.645542)">
      <path
         d="M 8.23,7.982 8.236,6.977 C 7.846,1.417 5.096,0 5.096,0 L 5.144,2.291 C 3.73,1.056 2.6,1.444 2.6,1.444 l 0.118,15.307 c 0,0 4.218,-1.796 5.428,5.505 C 10.238,13.535 21.401,24 21.401,24 V 9 c 0,0 -10.881,-9.18 -13.17,-1.018 z m 9.79,9.941 -1.046,-5.232 -1.904,4.507 h -0.96 l -1.72,-4.301 -1.046,5.04 H 9.321 l 2.093,-9.39 h 0.802 l 2.491,5.543 2.508,-5.557 h 0.869 l 2.075,9.39 h -2.138 z"
         fill="#3b6ea5"
         id="path3" />
    </g>
    <text
       x="371.94656"
       y="98.131317"
       text-anchor="middle"
       font-family="Helvetica, sans-serif"
       font-size="14.1977px"
       fill="#1e293b"
       id="label-pubmed"
       style="stroke-width:1.41977"
       transform="scale(1.0345272,0.96662516)">PubMed</text>
  </g>
  <g
     id="g27"
     transform="translate(-0.55819546)">
    <g
       id="icon-files"
       transform="matrix(0.05875141,0,0,0.05875141,497.96003,46.645542)">
      <path
         d="M 0,64 C 0,28.7 28.7,0 64,0 h 160 v 128 c 0,17.7 14.3,32 32,32 h 128 v 288 c 0,35.3 -28.7,64 -64,64 H 64 C 28.7,512 0,483.3 0,448 Z m 384,64 H 256 V 0 Z"
         fill="#3b6ea5"
         id="path4" />
    </g>
    <text
       x="498.20618"
       y="97.146004"
       text-anchor="middle"
       font-family="Helvetica, sans-serif"
       font-size="14.3799px"
       fill="#1e293b"
       id="label-files"
       style="stroke-width:1.43799"
       transform="scale(1.0214207,0.97902849)">Files</text>
  </g>
  <g
     id="g28">
    <g
       id="icon-db"
       transform="matrix(0.05875141,0,0,0.05875141,628.20228,46.645542)">
      <path
         d="m 448,80 v 48 c 0,44.2 -100.3,80 -224,80 C 100.3,208 0,172.2 0,128 V 80 C 0,35.8 100.3,0 224,0 347.7,0 448,35.8 448,80 Z M 393.2,214.7 C 414,207.3 433.1,197.8 448,186.1 V 288 c 0,44.2 -100.3,80 -224,80 C 100.3,368 0,332.2 0,288 V 186.1 c 14.9,11.8 34,21.2 54.8,28.6 44.9,16 104.7,25.3 169.2,25.3 64.5,0 124.3,-9.3 169.2,-25.3 z M 0,346.1 c 14.9,11.8 34,21.2 54.8,28.6 44.9,16 104.7,25.3 169.2,25.3 64.5,0 124.3,-9.3 169.2,-25.3 20.8,-7.4 39.9,-16.9 54.8,-28.6 V 432 c 0,44.2 -100.3,80 -224,80 C 100.3,512 0,476.2 0,432 Z"
         fill="#3b6ea5"
         id="path5" />
    </g>
    <text
       x="626.55627"
       y="97.270973"
       text-anchor="middle"
       font-family="Helvetica, sans-serif"
       font-size="14.3561px"
       fill="#1e293b"
       id="label-db"
       style="stroke-width:1.43561"
       transform="scale(1.0231104,0.9774116)">Databases</text>
  </g>
  <!-- Arrow: Data Sources ↕ Orchestration -->
  <!-- Orchestration Layer -->
  <rect
     x="100"
     y="170"
     width="600"
     height="80"
     rx="12"
     ry="12"
     fill="#e8e4ef"
     stroke="#6b5b95"
     stroke-width="2"
     id="rect4" />
  <text
     x="192.48975"
     y="162"
     text-anchor="middle"
     font-family="Helvetica, sans-serif"
     font-size="18px"
     font-weight="bold"
     fill="#6b5b95"
     id="text4">Orchestration Layer</text>
  <!-- Orchestration Icons -->
  <!-- Agent Loop (arrows-rotate) -->
  <!-- Tool Routing (wrench) -->
  <!-- Memory (brain) -->
  <!-- Context Management (layer-group) -->
  <g
     id="g23">
    <g
       id="icon-agent-loop"
       transform="matrix(0.05495162,0,0,0.05495162,148.2083,186.74361)">
      <path
         d="m 105.1,202.6 c 7.7,-21.8 20.2,-42.3 37.8,-59.8 62.5,-62.5 163.8,-62.5 226.3,0 L 386.3,160 H 352 c -17.7,0 -32,14.3 -32,32 0,17.7 14.3,32 32,32 h 111.5 c 0,0 0,0 0,0 h 0.4 c 17.7,0 32,-14.3 32,-32 V 80 c 0,-17.7 -14.3,-32 -32,-32 -17.7,0 -32,14.3 -32,32 v 35.2 L 414.4,97.6 c -87.5,-87.5 -229.3,-87.5 -316.8,0 -24.4,24.4 -42,53.1 -52.8,83.8 -5.9,16.7 2.9,34.9 19.5,40.8 16.6,5.9 34.9,-2.9 40.8,-19.5 z M 39,289.3 c -5,1.5 -9.8,4.2 -13.7,8.2 -4,4 -6.7,8.8 -8.1,14 -0.3,1.2 -0.6,2.5 -0.8,3.8 -0.3,1.7 -0.4,3.4 -0.4,5.1 L 16,432 c 0,17.7 14.3,32 32,32 17.7,0 32,-14.3 32,-32 v -35.1 l 17.6,17.5 c 0,0 0,0 0,0 87.5,87.4 229.3,87.4 316.7,0 24.4,-24.4 42.1,-53.1 52.9,-83.8 5.9,-16.7 -2.9,-34.9 -19.5,-40.8 -16.6,-5.9 -34.9,2.9 -40.8,19.5 -7.7,21.8 -20.2,42.3 -37.8,59.8 -62.5,62.5 -163.8,62.5 -226.3,0 L 142.7,369 125.6,352 H 160 c 17.7,0 32,-14.3 32,-32 0,-17.7 -14.3,-32 -32,-32 H 48.4 c -1.6,0 -3.2,0.1 -4.8,0.3 -1.6,0.2 -3.1,0.5 -4.6,1 z"
         fill="#6b5b95"
         id="path6" />
    </g>
    <text
       x="161.9462"
       y="233.68419"
       text-anchor="middle"
       font-family="Helvetica, sans-serif"
       font-size="13.7379px"
       fill="#1e293b"
       id="label-agent"
       style="stroke-width:1.37379">Agent Loop</text>
  </g>
  <g
     id="g17">
    <g
       id="icon-tools"
       transform="matrix(0.05495162,0,0,0.05495162,319.9321,186.74155)">
      <path
         d="m 352,320 c 88.4,0 160,-71.6 160,-160 0,-15.3 -2.2,-30.1 -6.2,-44.2 -3.1,-10.8 -16.4,-13.2 -24.3,-5.3 l -76.8,76.8 c -3,3 -7.1,4.7 -11.3,4.7 H 336 c -8.8,0 -16,-7.2 -16,-16 v -57.4 c 0,-4.2 1.7,-8.3 4.7,-11.3 L 401.5,30.5 C 409.4,22.6 406.9,9.3 396.2,6.2 382.1,2.2 367.3,0 352,0 263.6,0 192,71.6 192,160 c 0,19.1 3.4,37.5 9.5,54.5 L 19.9,396.1 C 7.2,408.8 0,426.1 0,444.1 0,481.6 30.4,512 67.9,512 c 18,0 35.3,-7.2 48,-19.9 L 297.5,310.5 c 17,6.2 35.4,9.5 54.5,9.5 z M 80,408 a 24,24 0 1 1 0,48 24,24 0 1 1 0,-48 z"
         fill="#6b5b95"
         id="path7" />
    </g>
    <text
       x="333.67001"
       y="233.68419"
       text-anchor="middle"
       font-family="Helvetica, sans-serif"
       font-size="13.7379px"
       fill="#1e293b"
       id="label-tools"
       style="stroke-width:1.37379">Tool Routing</text>
  </g>
  <g
     id="g16"
     transform="translate(-6.5990871)">
    <g
       id="icon-memory"
       transform="matrix(0.05495162,0,0,0.05495162,484.8832,186.74155)">
      <path
         d="m 184,0 c 30.9,0 56,25.1 56,56 v 400 c 0,30.9 -25.1,56 -56,56 -28.9,0 -52.7,-21.9 -55.7,-50.1 -5.2,1.4 -10.7,2.1 -16.3,2.1 -35.3,0 -64,-28.7 -64,-64 0,-7.4 1.3,-14.6 3.6,-21.2 C 21.4,367.4 0,338.2 0,304 0,272.1 18.7,244.5 45.8,231.7 37.1,220.8 32,207 32,192 32,161.3 53.6,135.7 82.4,129.4 80.8,123.9 80,118 80,112 80,82.1 100.6,56.9 128.3,49.9 131.3,21.9 155.1,0 184,0 Z m 144,0 c 28.9,0 52.6,21.9 55.7,49.9 27.8,7 48.3,32.1 48.3,62.1 0,6 -0.8,11.9 -2.4,17.4 28.8,6.2 50.4,31.9 50.4,62.6 0,15 -5.1,28.8 -13.8,39.7 27.1,12.8 45.8,40.4 45.8,72.3 0,34.2 -21.4,63.4 -51.6,74.8 2.3,6.6 3.6,13.8 3.6,21.2 0,35.3 -28.7,64 -64,64 -5.6,0 -11.1,-0.7 -16.3,-2.1 -3,28.2 -26.8,50.1 -55.7,50.1 -30.9,0 -56,-25.1 -56,-56 V 56 C 272,25.1 297.1,0 328,0 Z"
         fill="#6b5b95"
         id="path8" />
    </g>
    <text
       x="498.52484"
       y="233.68419"
       text-anchor="middle"
       font-family="Helvetica, sans-serif"
       font-size="13.7379px"
       fill="#1e293b"
       id="label-memory"
       style="stroke-width:1.37379">Memory</text>
  </g>
  <g
     id="icon-context"
     transform="matrix(0.04808266,0,0,0.04808266,635.93486,188.5)">
    <path
       d="m 264.5,5.2 c 14.9,-6.9 32.1,-6.9 47,0 l 218.6,101 c 8.5,3.9 13.9,12.4 13.9,21.8 0,9.4 -5.4,17.9 -13.9,21.8 l -218.6,101 c -14.9,6.9 -32.1,6.9 -47,0 L 45.9,149.8 C 37.4,145.8 32,137.3 32,128 c 0,-9.3 5.4,-17.9 13.9,-21.8 z m 212.4,204.4 53.2,24.6 c 8.5,3.9 13.9,12.4 13.9,21.8 0,9.4 -5.4,17.9 -13.9,21.8 l -218.6,101 c -14.9,6.9 -32.1,6.9 -47,0 L 45.9,277.8 C 37.4,273.8 32,265.3 32,256 c 0,-9.3 5.4,-17.9 13.9,-21.8 l 53.2,-24.6 152,70.2 c 23.4,10.8 50.4,10.8 73.8,0 z m -152,198.2 152,-70.2 53.2,24.6 c 8.5,3.9 13.9,12.4 13.9,21.8 0,9.4 -5.4,17.9 -13.9,21.8 l -218.6,101 c -14.9,6.9 -32.1,6.9 -47,0 L 45.9,405.8 C 37.4,401.8 32,393.3 32,384 c 0,-9.3 5.4,-17.9 13.9,-21.8 l 53.2,-24.6 152,70.2 c 23.4,10.8 50.4,10.8 73.8,0 z"
       fill="#6b5b95"
       id="path9" />
  </g>
  <text
     x="649.64178"
     y="233.95251"
     text-anchor="middle"
     font-family="Helvetica, sans-serif"
     font-size="13.7379px"
     fill="#1e293b"
     id="label-context"
     style="stroke-width:1.37379">Context</text>
  <!-- Arrow: Orchestration ↕ Model -->
  <line
     x1="400"
     y1="257.12466"
     x2="400"
     y2="304"
     stroke="#64748b"
     stroke-width="1.88311"
     id="line5" />
  <polygon
     points="394,298 406,298 400,310 "
     fill="#64748b"
     id="polygon5"
     transform="translate(0,-4)" />
  <polygon
     points="394,262 406,262 400,250 "
     fill="#64748b"
     id="polygon6"
     transform="translate(0,4)" />
  <!-- Model Layer -->
  <rect
     x="100"
     y="310"
     width="600"
     height="80"
     rx="12"
     ry="12"
     fill="#efe0e6"
     stroke="#a14a6b"
     stroke-width="2"
     id="rect6" />
  <text
     x="159.03418"
     y="302"
     text-anchor="middle"
     font-family="Helvetica, sans-serif"
     font-size="18px"
     font-weight="bold"
     fill="#a14a6b"
     id="text6">Model Layer</text>
  <!-- Model Layer Icons -->
  <!-- Claude / Anthropic (Font Awesome Free 7.2.0, CC BY 4.0) -->
  <!-- OpenAI / GPT (Font Awesome Free 7.2.0, CC BY 4.0) -->
  <!-- Google / Gemini (Font Awesome Free 6.7.2, CC BY 4.0) -->
  <!-- Meta / Llama (Font Awesome Free 6.7.2, CC BY 4.0) -->
  <g
     id="g1"
     transform="translate(10.674766,-0.1668455)">
    <g
       id="icon-claude"
       transform="matrix(0.05719426,0,0,0.05719426,132.82259,323.18274)">
      <path
         d="m 164.4,404.5 100.7,-56.5 1.7,-4.9 -1.7,-2.7 h -4.9 l -16.8,-1 -57.5,-1.6 -49.9,-2.1 -48.3,-2.6 -12.2,-2.6 -11.4,-15 1.2,-7.5 10.2,-6.9 14.7,1.3 c 18.9,1.3 45.9,3.1 81,5.6 l 35.2,2.1 52.2,5.4 h 8.3 l 1.2,-3.4 -2.8,-2.1 -2.2,-2.1 -50.3,-34.1 -54.4,-36 -28.5,-20.7 -15.4,-10.5 -7.8,-9.8 -3.4,-21.5 14,-15.4 18.8,1.3 4.8,1.3 19,14.7 40.7,31.5 53.1,39.1 7.8,6.5 3.1,-2.2 0.4,-1.6 -3.5,-5.8 -28.9,-52.2 -30.8,-53.1 -13.7,-22 -3.6,-13.2 c -1.3,-5.4 -2.2,-10 -2.2,-15.5 l 15.9,-21.6 8.8,-2.8 21.2,2.8 8.9,7.8 13.2,30.2 21.4,47.5 33.2,64.6 9.7,19.2 5.2,17.8 1.9,5.4 h 3.4 v -3.1 l 2.7,-36.4 5,-44.7 4.9,-57.5 1.7,-16.2 8,-19.4 15.9,-10.5 12.4,5.9 10.2,14.7 -1.4,9.5 -6.1,39.5 -11.9,61.9 -7.8,41.5 h 4.5 l 5.2,-5.2 21,-27.8 35.2,-44.1 15.5,-17.5 18.1,-19.3 11.6,-9.2 h 22 l 16.2,24.1 -7.3,24.9 -22.7,28.7 -18.8,24.4 -27,36.3 -16.8,29 1.6,2.3 4,-0.4 60.9,-13 32.9,-5.9 39.3,-6.7 17.8,8.3 1.9,8.4 -7,17.2 -42,10.4 -49.2,9.8 -73.3,17.3 -0.9,0.7 1,1.3 33,3.1 14.1,0.8 h 34.6 l 64.4,4.8 16.8,11.1 10.1,13.6 -1.7,10.4 -25.9,13.2 c -15.5,-3.7 -54.4,-12.9 -116.6,-27.7 l -28,-7 h -3.9 v 2.3 l 23.3,22.8 42.7,38.6 53.5,49.8 2.7,12.3 -6.9,9.7 -7.3,-1 -47,-35.4 -18.1,-15.9 -41.1,-34.6 h -2.7 v 3.6 l 9.5,13.9 50,75.2 2.6,23 -3.6,7.5 -13,4.5 -14.2,-2.6 -29.3,-41.1 -30.2,-46.3 -24.4,-41.5 -3,1.7 -14.4,154.8 -6.7,7.9 -15.5,5.9 -13,-9.8 -6.9,-15.9 6.9,-31.5 8.3,-41.1 6.7,-32.7 6.1,-40.6 3.6,-13.5 -0.2,-0.9 -3,0.4 -30.6,42 -46.5,62.9 -36.8,39.4 -8.8,3.5 -15.3,-7.9 1.4,-14.1 8.5,-12.6 50.9,-64.8 30.7,-40.2 19.8,-23.2 -0.1,-3.4 h -1.2 l -135.3,87.8 -24.1,3.1 -10.4,-9.7 1.3,-15.9 4.9,-5.2 40.7,-28 -0.1,0.1 v 0.1 z"
         fill="#a14a6b"
         id="path10" />
    </g>
    <text
       x="151.10695"
       y="373.21375"
       text-anchor="middle"
       font-family="Helvetica, sans-serif"
       font-size="14.2986px"
       fill="#1e293b"
       id="label-claude"
       style="stroke-width:1.42986">Claude</text>
  </g>
  <g
     id="g2"
     transform="translate(10.57549,-0.1668455)">
    <g
       id="icon-openai"
       transform="matrix(0.05719426,0,0,0.05719426,304.40538,323.2285)">
      <path
         d="m 260.4,249.8 v -48.6 c 0,-4.1 1.5,-7.2 5.1,-9.2 l 97.8,-56.3 c 13.3,-7.7 29.2,-11.3 45.6,-11.3 61.4,0 100.4,47.6 100.4,98.3 0,3.6 0,7.7 -0.5,11.8 L 407.3,175.1 c -6.1,-3.6 -12.3,-3.6 -18.4,0 z M 488.7,439.2 V 323 c 0,-7.2 -3.1,-12.3 -9.2,-15.9 L 351,232.4 393,208.3 c 3.6,-2 6.7,-2 10.2,0 l 97.8,56.4 c 28.2,16.4 47.1,51.2 47.1,85 0,38.9 -23,74.8 -59.4,89.6 v 0 z m -258.5,-102.4 -42,-24.6 c -3.6,-2 -5.1,-5.1 -5.1,-9.2 V 190.4 c 0,-54.8 42,-96.3 98.8,-96.3 21.5,0 41.5,7.2 58.4,20 l -100.9,58.4 c -6.1,3.6 -9.2,8.7 -9.2,15.9 v 148.5 0 z m 90.4,52.2 -60.2,-33.8 v -71.7 l 60.2,-33.8 60.2,33.8 v 71.7 z m 38.7,155.7 c -21.5,0 -41.5,-7.2 -58.4,-20 l 100.9,-58.4 c 6.1,-3.6 9.2,-8.7 9.2,-15.9 V 301.9 l 42.5,24.6 c 3.6,2 5.1,5.1 5.1,9.2 v 112.6 c 0,54.8 -42.5,96.3 -99.3,96.3 v 0 z M 237.8,430.5 140.1,374.2 C 111.9,357.8 93,323 93,289.2 c 0,-39.4 23.6,-74.8 59.9,-89.6 v 116.7 c 0,7.2 3.1,12.3 9.2,15.9 l 128,74.2 -42,24.1 c -3.6,2 -6.7,2 -10.2,0 z m -5.6,84 c -57.9,0 -100.4,-43.5 -100.4,-97.3 0,-4.1 0.5,-8.2 1,-12.3 l 100.9,58.4 c 6.1,3.6 12.3,3.6 18.4,0 l 128.5,-74.2 v 48.6 c 0,4.1 -1.5,7.2 -5.1,9.2 l -97.8,56.3 c -13.3,7.7 -29.2,11.3 -45.6,11.3 v 0 z m 127,60.9 c 62,0 113.7,-44 125.4,-102.4 57.3,-14.9 94.2,-68.6 94.2,-123.4 0,-35.8 -15.4,-70.7 -43,-95.7 2.6,-10.8 4.1,-21.5 4.1,-32.3 0,-73.2 -59.4,-128 -128,-128 -13.8,0 -27.1,2 -40.4,6.7 -23,-22.5 -54.8,-36.9 -89.6,-36.9 -62,0 -113.7,44 -125.4,102.4 -57.3,14.8 -94.2,68.6 -94.2,123.4 0,35.8 15.4,70.7 43,95.7 -2.6,10.8 -4.1,21.5 -4.1,32.3 0,73.2 59.4,128 128,128 13.8,0 27.1,-2 40.4,-6.7 23,22.5 54.8,36.9 89.6,36.9 z"
         fill="#a14a6b"
         id="path11" />
    </g>
    <text
       x="322.48416"
       y="373.20679"
       text-anchor="middle"
       font-family="Helvetica, sans-serif"
       font-size="14.2986px"
       fill="#1e293b"
       id="label-gpt"
       style="stroke-width:1.42986">GPT</text>
  </g>
  <g
     id="g3"
     transform="translate(0,-0.1668455)">
    <g
       id="icon-google"
       transform="matrix(0.05719426,0,0,0.05719426,475.98817,327.31217)">
      <path
         d="M 488,261.8 C 488,403.3 391.1,504 248,504 110.8,504 0,393.2 0,256 0,118.8 110.8,8 248,8 314.8,8 371,32.5 414.3,72.9 l -67.5,64.9 C 258.5,52.6 94.3,116.6 94.3,256 c 0,86.5 69.1,156.6 153.7,156.6 98.2,0 135,-70.4 140.8,-106.9 H 248 v -85.3 h 236.1 c 2.3,12.7 3.9,24.9 3.9,41.4 z"
         fill="#a14a6b"
         id="path12" />
    </g>
    <text
       x="490.0867"
       y="373.20679"
       text-anchor="middle"
       font-family="Helvetica, sans-serif"
       font-size="14.2986px"
       fill="#1e293b"
       id="label-gemini"
       style="stroke-width:1.42986">Gemini</text>
  </g>
  <g
     id="g4"
     transform="translate(-2.3638786,-0.1668455)">
    <g
       id="icon-meta"
       transform="matrix(0.05004498,0,0,0.05004498,636.13211,332.79709)">
      <path
         d="m 640,317.9 c 0,91.3 -39.4,148.5 -110.3,148.5 -62.6,0 -95.8,-34.6 -156.9,-136.6 l -31.4,-52.6 c -8.3,-12.5 -14.5,-24.2 -21.2,-35 -20.1,33.8 -47.1,83 -47.1,83 C 206.1,441.8 168.5,466.4 116.2,466.4 43.42,466.4 0,409.1 0,320.5 0,177.5 79.78,42.4 183.9,42.4 c 50.2,0 93.8,24.68 144.8,89.5 37.1,-50.1 78.1,-89.5 130.6,-89.5 99.1,0 180.7,125.7 180.7,275.5 z M 287.4,192.2 C 244.5,130.1 216.5,111.7 183,111.7 c -61.9,0 -113.78,106.1 -113.78,210 0,48.5 18.48,75.7 49.58,75.7 30.2,0 49,-19 103.2,-103.8 0,0 24.7,-39.1 65.4,-101.4 z m 243.8,205.2 c 32.2,0 46.9,-27.5 46.9,-74.9 0,-124.2 -54.3,-225.42 -123.2,-225.42 -33.2,0 -61.1,25.92 -94.9,78.02 9.4,13.8 19.1,29 29.3,45.4 l 37.5,62.4 c 58.7,94.1 73.5,114.5 104.4,114.5 z"
         fill="#a14a6b"
         id="path13" />
    </g>
    <text
       x="651.75555"
       y="373.22772"
       text-anchor="middle"
       font-family="Helvetica, sans-serif"
       font-size="14.2986px"
       fill="#1e293b"
       id="label-llama"
       style="stroke-width:1.42986">Llama</text>
  </g>
  <!-- Arrow: Model → Application (one-way) -->
  <line
     x1="400"
     y1="394.91977"
     x2="400"
     y2="444"
     stroke="#64748b"
     stroke-width="1.88793"
     id="line7" />
  <polygon
     points="394,438 406,438 400,450 "
     fill="#64748b"
     id="polygon7"
     transform="translate(0,-4)" />
  <!-- Application / Output Layer -->
  <rect
     x="100"
     y="450"
     width="600"
     height="80"
     rx="12"
     ry="12"
     fill="#dce8e1"
     stroke="#4a8a6f"
     stroke-width="2"
     id="rect7" />
  <text
     x="219.89404"
     y="442"
     text-anchor="middle"
     font-family="Helvetica, sans-serif"
     font-size="18px"
     font-weight="bold"
     fill="#4a8a6f"
     id="text8">Application / Output Layer</text>
  <!-- Application Layer Icons -->
  <!-- Reports (file-lines, Font Awesome Free 6.7.2, CC BY 4.0) -->
  <!-- Plots (chart-bar, Font Awesome Free 6.7.2, CC BY 4.0) -->
  <!-- Dashboards (gauge, Font Awesome Free 6.7.2, CC BY 4.0) -->
  <!-- Documents (file, Font Awesome Free 6.7.2, CC BY 4.0) -->
  <!-- Code (Font Awesome Free 6.7.2, CC BY 4.0) -->
  <g
     id="g10"
     transform="translate(-6.3874537,0.30481837)">
    <g
       id="icon-reports"
       transform="matrix(0.05515322,0,0,0.05515322,135.90379,466.50261)">
      <path
         d="M 64,0 C 28.7,0 0,28.7 0,64 v 384 c 0,35.3 28.7,64 64,64 h 256 c 35.3,0 64,-28.7 64,-64 V 160 H 256 c -17.7,0 -32,-14.3 -32,-32 V 0 Z M 256,0 V 128 H 384 Z M 112,256 h 160 c 8.8,0 16,7.2 16,16 0,8.8 -7.2,16 -16,16 H 112 c -8.8,0 -16,-7.2 -16,-16 0,-8.8 7.2,-16 16,-16 z m 0,64 h 160 c 8.8,0 16,7.2 16,16 0,8.8 -7.2,16 -16,16 H 112 c -8.8,0 -16,-7.2 -16,-16 0,-8.8 7.2,-16 16,-16 z m 0,64 h 160 c 8.8,0 16,7.2 16,16 0,8.8 -7.2,16 -16,16 H 112 c -8.8,0 -16,-7.2 -16,-16 0,-8.8 7.2,-16 16,-16 z"
         fill="#4a8a6f"
         id="path14" />
    </g>
    <text
       x="146.13637"
       y="510.01294"
       text-anchor="middle"
       font-family="Helvetica, sans-serif"
       font-size="13.7883px"
       fill="#1e293b"
       id="label-reports"
       style="stroke-width:1.37883">Reports</text>
  </g>
  <g
     id="g9"
     transform="translate(-2.5940863,0.30481837)">
    <g
       id="icon-plots"
       transform="matrix(0.05515322,0,0,0.05515322,246.18783,468.26751)">
      <path
         d="m 32,32 c 17.7,0 32,14.3 32,32 v 336 c 0,8.8 7.2,16 16,16 h 400 c 17.7,0 32,14.3 32,32 0,17.7 -14.3,32 -32,32 H 80 C 35.8,480 0,444.2 0,400 V 64 C 0,46.3 14.3,32 32,32 Z m 96,96 c 0,-17.7 14.3,-32 32,-32 h 192 c 17.7,0 32,14.3 32,32 0,17.7 -14.3,32 -32,32 H 160 c -17.7,0 -32,-14.3 -32,-32 z m 32,64 h 128 c 17.7,0 32,14.3 32,32 0,17.7 -14.3,32 -32,32 H 160 c -17.7,0 -32,-14.3 -32,-32 0,-17.7 14.3,-32 32,-32 z m 0,96 h 256 c 17.7,0 32,14.3 32,32 0,17.7 -14.3,32 -32,32 H 160 c -17.7,0 -32,-14.3 -32,-32 0,-17.7 14.3,-32 32,-32 z"
         fill="#4a8a6f"
         id="path15" />
    </g>
    <text
       x="259.97614"
       y="512.61169"
       text-anchor="middle"
       font-family="Helvetica, sans-serif"
       font-size="13.7883px"
       fill="#1e293b"
       id="label-plots"
       style="stroke-width:1.37883">Plots</text>
  </g>
  <g
     id="g8"
     transform="translate(-3.214897,0.30481837)">
    <g
       id="icon-dash"
       transform="matrix(0.05515322,0,0,0.05515322,373.12916,466.50261)">
      <path
         d="m 0,256 a 256,256 0 1 1 512,0 256,256 0 1 1 -512,0 z m 320,96 c 0,-26.9 -16.5,-49.9 -40,-59.3 V 88 c 0,-13.3 -10.7,-24 -24,-24 -13.3,0 -24,10.7 -24,24 v 204.7 c -23.5,9.5 -40,32.5 -40,59.3 0,35.3 28.7,64 64,64 35.3,0 64,-28.7 64,-64 z M 144,176 a 32,32 0 1 0 0,-64 32,32 0 1 0 0,64 z m -16,80 a 32,32 0 1 0 -64,0 32,32 0 1 0 64,0 z m 288,32 a 32,32 0 1 0 0,-64 32,32 0 1 0 0,64 z M 400,144 a 32,32 0 1 0 -64,0 32,32 0 1 0 64,0 z"
         fill="#4a8a6f"
         id="path16" />
    </g>
    <text
       x="386.91745"
       y="512.61169"
       text-anchor="middle"
       font-family="Helvetica, sans-serif"
       font-size="13.7883px"
       fill="#1e293b"
       id="label-dash"
       style="stroke-width:1.37883">Dashboards</text>
  </g>
  <g
     id="g7"
     transform="translate(-25.024333,0.30481837)">
    <g
       id="icon-docs"
       transform="matrix(0.05515322,0,0,0.05515322,522.36945,466.50261)">
      <path
         d="M 0,64 C 0,28.7 28.7,0 64,0 h 160 v 128 c 0,17.7 14.3,32 32,32 h 128 v 288 c 0,35.3 -28.7,64 -64,64 H 64 C 28.7,512 0,483.3 0,448 Z m 384,64 H 256 V 0 Z"
         fill="#4a8a6f"
         id="path17" />
    </g>
    <text
       x="533.40009"
       y="512.61169"
       text-anchor="middle"
       font-family="Helvetica, sans-serif"
       font-size="13.7883px"
       fill="#1e293b"
       id="label-docs"
       style="stroke-width:1.37883">Documents</text>
  </g>
  <g
     id="g6"
     transform="translate(-18.943008,0.30481837)">
    <g
       id="icon-code"
       transform="matrix(0.04825907,0,0,0.04825907,645.9068,470.0298)">
      <path
         d="m 392.8,1.2 c -17,-4.9 -34.7,5 -39.6,22 l -128,448 c -4.9,17 5,34.7 22,39.6 17,4.9 34.7,-5 39.6,-22 l 128,-448 c 4.9,-17 -5,-34.7 -22,-39.6 z m 80.6,120.1 c -12.5,12.5 -12.5,32.8 0,45.3 l 89.3,89.4 -89.4,89.4 c -12.5,12.5 -12.5,32.8 0,45.3 12.5,12.5 32.8,12.5 45.3,0 l 112,-112 c 12.5,-12.5 12.5,-32.8 0,-45.3 l -112,-112 c -12.5,-12.5 -32.8,-12.5 -45.3,0 z m -306.7,0 c -12.5,-12.5 -32.8,-12.5 -45.3,0 l -112,112 c -12.5,12.5 -12.5,32.8 0,45.3 l 112,112 c 12.5,12.5 32.8,12.5 45.3,0 12.5,-12.5 12.5,-32.8 0,-45.3 L 77.3,256 166.7,166.6 c 12.5,-12.5 12.5,-32.8 0,-45.3 z"
         fill="#4a8a6f"
         id="path18" />
    </g>
    <text
       x="659.69513"
       y="512.62518"
       text-anchor="middle"
       font-family="Helvetica, sans-serif"
       font-size="13.7883px"
       fill="#1e293b"
       id="label-code"
       style="stroke-width:1.37883">Code</text>
  </g>
  <!-- Side labels for arrow directions -->
  <line
     x1="400"
     y1="117.12466"
     x2="400"
     y2="164"
     stroke="#64748b"
     stroke-width="1.88311"
     id="line12" />
  <polygon
     points="406,298 400,310 394,298 "
     fill="#64748b"
     id="polygon12"
     transform="translate(0,-144)" />
  <polygon
     points="406,262 400,250 394,262 "
     fill="#64748b"
     id="polygon13"
     transform="translate(0,-136)" />
</svg>
