<?xml version="1.0" encoding="UTF-8" standalone="no"?>
<svg
   viewBox="0 0 757.89996 288.90002"
   width="757.89996"
   height="288.90002"
   role="img"
   aria-label="Three modalities of task delegation: Automation, Augmentation, and Agency, showing increasing AI involvement"
   version="1.1"
   id="svg1"
   sodipodi:docname="task_delegation_modalities.svg"
   inkscape:version="1.3.2 (091e20e, 2023-11-25)"
   xml:space="preserve"
   xmlns:inkscape="http://www.inkscape.org/namespaces/inkscape"
   xmlns:sodipodi="http://sodipodi.sourceforge.net/DTD/sodipodi-0.dtd"
   xmlns="http://www.w3.org/2000/svg"
   xmlns:svg="http://www.w3.org/2000/svg"><sodipodi:namedview
     id="namedview1"
     pagecolor="#ffffff"
     bordercolor="#000000"
     borderopacity="0.25"
     inkscape:showpageshadow="2"
     inkscape:pageopacity="0.0"
     inkscape:pagecheckerboard="0"
     inkscape:deskcolor="#d1d1d1"
     inkscape:zoom="1.2176505"
     inkscape:cx="380.24048"
     inkscape:cy="126.47308"
     inkscape:window-width="1728"
     inkscape:window-height="961"
     inkscape:window-x="0"
     inkscape:window-y="38"
     inkscape:window-maximized="1"
     inkscape:current-layer="layer-cards"
     inkscape:export-bgcolor="#ffffff49" /><!-- =============================================
       Task Delegation Modalities Diagram

       Colors: Okabe-Ito colorblind-safe palette
         Automation:   #0072B2 (Blue)
         Augmentation: #E69F00 (Orange)
         Agency:       #009E73 (Bluish Green)

       Layout: Three cards with human/AI involvement bars
       ============================================= --><defs
     id="defs1"><filter
       id="node-shadow"
       x="-0.038409091"
       y="-0.031296296"
       width="1.0813636"
       height="1.07"><feGaussianBlur
         in="SourceAlpha"
         stdDeviation="3"
         result="blur"
         id="feGaussianBlur1" /><feOffset
         in="blur"
         dx="1"
         dy="2"
         result="offsetBlur"
         id="feOffset1" /><feFlood
         flood-color="#000000"
         flood-opacity="0.12"
         result="color"
         id="feFlood1" /><feComposite
         in="color"
         in2="offsetBlur"
         operator="in"
         result="shadow"
         id="feComposite1" /><feMerge
         id="feMerge1"><feMergeNode
           in="shadow"
           id="feMergeNode1" /><feMergeNode
           in="SourceGraphic"
           id="feMergeNode2" /></feMerge></filter></defs><!-- ==========================================
       ARROW connecting the three cards
       ========================================== --><!-- ==========================================
       THREE CARDS
       ========================================== --><g
     id="layer-cards"
     inkscape:label="Cards"
     inkscape:groupmode="layer"
     transform="translate(-21.55,-11.550001)"><!-- ======== AUTOMATION (Blue #0072B2) ======== --><!-- ======== AUGMENTATION (Orange #E69F00) ======== --><rect
       id="rect-augmentation"
       x="290"
       y="20"
       width="220"
       height="270"
       rx="12"
       ry="12"
       fill="#ffffff"
       stroke="#e69f00"
       stroke-width="2.5"
       filter="url(#node-shadow)"
       style="display:inline" /><!-- ======== AGENCY (Bluish Green #009E73) ======== --><g
       id="g12"><rect
         id="rect-automation"
         x="30"
         y="20"
         width="220"
         height="270"
         rx="12"
         ry="12"
         fill="#ffffff"
         stroke="#0072b2"
         stroke-width="2.5"
         filter="url(#node-shadow)" /><rect
         id="header-automation"
         x="30"
         y="20"
         width="220"
         height="52"
         rx="12"
         ry="12"
         fill="#0072b2" /><rect
         x="30"
         y="52"
         width="220"
         height="20"
         fill="#0072b2"
         id="rect1" /><text
         id="title-automation"
         x="140"
         y="54"
         font-family="Helvetica, Arial, sans-serif"
         font-size="22px"
         font-weight="bold"
         fill="#ffffff"
         text-anchor="middle"
         style="fill:#000000;fill-opacity:1">Automation</text><text
         id="desc-automation-1"
         x="140"
         y="100"
         font-family="Helvetica, Arial, sans-serif"
         font-size="14px"
         fill="#333333"
         text-anchor="middle">You define the task;</text><text
         id="desc-automation-2"
         x="140"
         y="118"
         font-family="Helvetica, Arial, sans-serif"
         font-size="14px"
         fill="#333333"
         text-anchor="middle">AI executes it</text><rect
         x="75"
         y="148"
         width="50"
         height="110"
         rx="4"
         ry="4"
         fill="#555555"
         opacity="0.85"
         id="bar-auto-human" /><rect
         x="155"
         y="218"
         width="50"
         height="40"
         rx="4"
         ry="4"
         fill="#0072b2"
         opacity="0.85"
         id="bar-auto-ai"
         style="fill:#005f5f;fill-opacity:1" /><g
         style="fill:#005f5f;fill-opacity:1"
         id="g6"
         transform="matrix(0.025,0,0,0.025,168,283.17365)"><path
           d="m 160,-360 q -50,0 -85,-35 -35,-35 -35,-85 0,-50 35,-85 35,-35 85,-35 v -80 q 0,-33 23.5,-56.5 Q 207,-760 240,-760 h 120 q 0,-50 35,-85 35,-35 85,-35 50,0 85,35 35,35 35,85 h 120 q 33,0 56.5,23.5 23.5,23.5 23.5,56.5 v 80 q 50,0 85,35 35,35 35,85 0,50 -35,85 -35,35 -85,35 v 160 q 0,33 -23.5,56.5 Q 753,-120 720,-120 H 240 q -33,0 -56.5,-23.5 Q 160,-167 160,-200 Z m 242.5,-97.5 Q 420,-475 420,-500 420,-525 402.5,-542.5 385,-560 360,-560 q -25,0 -42.5,17.5 -17.5,17.5 -17.5,42.5 0,25 17.5,42.5 17.5,17.5 42.5,17.5 25,0 42.5,-17.5 z m 240,0 Q 660,-475 660,-500 660,-525 642.5,-542.5 625,-560 600,-560 q -25,0 -42.5,17.5 -17.5,17.5 -17.5,42.5 0,25 17.5,42.5 17.5,17.5 42.5,17.5 25,0 42.5,-17.5 z M 320,-280 h 320 v -80 H 320 Z m -80,80 H 720 V -680 H 240 Z m 240,-240 z"
           id="path1"
           style="fill:#005f5f;fill-opacity:1" /></g><g
         style="fill:#6e6e6e;fill-opacity:1"
         id="g9"
         transform="matrix(0.025,0,0,0.025,87.494118,282.67365)"><path
           d="m 380,-360 q 42,0 71,-29 l 160,-160 q 29,-29 29,-71 0,-42 -29,-71 -29,-29 -71,-29 -42,0 -71,29 -37,-13 -73,-6 -36,7 -61,32 -25,25 -32,61 -7,36 6,73 -29,29 -29,71 0,42 29,71 29,29 71,29 z M 240,-80 V -252 Q 183,-304 151.5,-373.5 120,-443 120,-520 q 0,-150 105,-255 105,-105 255,-105 125,0 221.5,73.5 Q 798,-733 827,-615 l 52,205 q 5,19 -7,34.5 -12,15.5 -32,15.5 h -80 v 120 q 0,33 -23.5,56.5 Q 713,-160 680,-160 h -80 v 80 h -80 v -160 h 160 v -200 h 108 l -38,-155 q -23,-91 -98,-148 -75,-57 -172,-57 -116,0 -198,81 -82,81 -82,197 0,60 24.5,114 24.5,54 69.5,96 l 26,24 v 208 z m 254,-360 z"
           id="path1-0"
           style="fill:#6e6e6e;fill-opacity:1" /></g></g><g
       id="g13"><rect
         id="header-augmentation"
         x="290"
         y="20"
         width="220"
         height="52"
         rx="12"
         ry="12"
         fill="#e69f00" /><rect
         x="290"
         y="52"
         width="220"
         height="20"
         fill="#e69f00"
         id="rect2" /><text
         id="title-augmentation"
         x="400"
         y="54"
         font-family="Helvetica, Arial, sans-serif"
         font-size="22px"
         font-weight="bold"
         fill="#1a1a1a"
         text-anchor="middle">Augmentation</text><text
         id="desc-augmentation-1"
         x="400"
         y="100"
         font-family="Helvetica, Arial, sans-serif"
         font-size="14px"
         fill="#333333"
         text-anchor="middle">You and AI collaborate</text><text
         id="desc-augmentation-2"
         x="400"
         y="118"
         font-family="Helvetica, Arial, sans-serif"
         font-size="14px"
         fill="#333333"
         text-anchor="middle">as thinking partners</text><rect
         x="335"
         y="168"
         width="50"
         height="90"
         rx="4"
         ry="4"
         fill="#555555"
         opacity="0.85"
         id="bar-aug-human" /><rect
         x="415"
         y="178"
         width="50"
         height="80"
         rx="4"
         ry="4"
         fill="#e69f00"
         opacity="0.85"
         id="bar-aug-ai"
         style="fill:#005f5f;fill-opacity:1" /><g
         style="fill:#005f5f;fill-opacity:1"
         id="g7"
         transform="matrix(0.025,0,0,0.025,428,283.17365)"><path
           d="m 160,-360 q -50,0 -85,-35 -35,-35 -35,-85 0,-50 35,-85 35,-35 85,-35 v -80 q 0,-33 23.5,-56.5 Q 207,-760 240,-760 h 120 q 0,-50 35,-85 35,-35 85,-35 50,0 85,35 35,35 35,85 h 120 q 33,0 56.5,23.5 23.5,23.5 23.5,56.5 v 80 q 50,0 85,35 35,35 35,85 0,50 -35,85 -35,35 -85,35 v 160 q 0,33 -23.5,56.5 Q 753,-120 720,-120 H 240 q -33,0 -56.5,-23.5 Q 160,-167 160,-200 Z m 242.5,-97.5 Q 420,-475 420,-500 420,-525 402.5,-542.5 385,-560 360,-560 q -25,0 -42.5,17.5 -17.5,17.5 -17.5,42.5 0,25 17.5,42.5 17.5,17.5 42.5,17.5 25,0 42.5,-17.5 z m 240,0 Q 660,-475 660,-500 660,-525 642.5,-542.5 625,-560 600,-560 q -25,0 -42.5,17.5 -17.5,17.5 -17.5,42.5 0,25 17.5,42.5 17.5,17.5 42.5,17.5 25,0 42.5,-17.5 z M 320,-280 h 320 v -80 H 320 Z m -80,80 H 720 V -680 H 240 Z m 240,-240 z"
           id="path6"
           style="fill:#005f5f;fill-opacity:1" /></g><g
         style="fill:#6e6e6e;fill-opacity:1"
         id="g10"
         transform="matrix(0.025,0,0,0.025,347.49412,282.67365)"><path
           d="m 380,-360 q 42,0 71,-29 l 160,-160 q 29,-29 29,-71 0,-42 -29,-71 -29,-29 -71,-29 -42,0 -71,29 -37,-13 -73,-6 -36,7 -61,32 -25,25 -32,61 -7,36 6,73 -29,29 -29,71 0,42 29,71 29,29 71,29 z M 240,-80 V -252 Q 183,-304 151.5,-373.5 120,-443 120,-520 q 0,-150 105,-255 105,-105 255,-105 125,0 221.5,73.5 Q 798,-733 827,-615 l 52,205 q 5,19 -7,34.5 -12,15.5 -32,15.5 h -80 v 120 q 0,33 -23.5,56.5 Q 713,-160 680,-160 h -80 v 80 h -80 v -160 h 160 v -200 h 108 l -38,-155 q -23,-91 -98,-148 -75,-57 -172,-57 -116,0 -198,81 -82,81 -82,197 0,60 24.5,114 24.5,54 69.5,96 l 26,24 v 208 z m 254,-360 z"
           id="path9"
           style="fill:#6e6e6e;fill-opacity:1" /></g></g><g
       id="g14"><rect
         id="rect-agency"
         x="550"
         y="20"
         width="220"
         height="270"
         rx="12"
         ry="12"
         fill="#ffffff"
         stroke="#009e73"
         stroke-width="2.5"
         filter="url(#node-shadow)" /><rect
         id="header-agency"
         x="550"
         y="20"
         width="220"
         height="52"
         rx="12"
         ry="12"
         fill="#009e73" /><rect
         x="550"
         y="52"
         width="220"
         height="20"
         fill="#009e73"
         id="rect4" /><text
         id="title-agency"
         x="660"
         y="54"
         font-family="Helvetica, Arial, sans-serif"
         font-size="22px"
         font-weight="bold"
         fill="#ffffff"
         text-anchor="middle"
         style="fill:#000000;fill-opacity:1">Agency</text><text
         id="desc-agency-1"
         x="660"
         y="100"
         font-family="Helvetica, Arial, sans-serif"
         font-size="14px"
         fill="#333333"
         text-anchor="middle">You configure; AI acts</text><text
         id="desc-agency-2"
         x="660"
         y="118"
         font-family="Helvetica, Arial, sans-serif"
         font-size="14px"
         fill="#333333"
         text-anchor="middle">independently</text><rect
         x="595"
         y="218"
         width="50"
         height="40"
         rx="4"
         ry="4"
         fill="#555555"
         opacity="0.85"
         id="bar-agency-human" /><rect
         x="675"
         y="148"
         width="50"
         height="110"
         rx="4"
         ry="4"
         fill="#009e73"
         opacity="0.85"
         id="bar-agency-ai"
         style="fill:#005f5f;fill-opacity:1" /><g
         style="fill:#005f5f;fill-opacity:1"
         id="g8"
         transform="matrix(0.025,0,0,0.025,688,283.17365)"><path
           d="m 160,-360 q -50,0 -85,-35 -35,-35 -35,-85 0,-50 35,-85 35,-35 85,-35 v -80 q 0,-33 23.5,-56.5 Q 207,-760 240,-760 h 120 q 0,-50 35,-85 35,-35 85,-35 50,0 85,35 35,35 35,85 h 120 q 33,0 56.5,23.5 23.5,23.5 23.5,56.5 v 80 q 50,0 85,35 35,35 35,85 0,50 -35,85 -35,35 -85,35 v 160 q 0,33 -23.5,56.5 Q 753,-120 720,-120 H 240 q -33,0 -56.5,-23.5 Q 160,-167 160,-200 Z m 242.5,-97.5 Q 420,-475 420,-500 420,-525 402.5,-542.5 385,-560 360,-560 q -25,0 -42.5,17.5 -17.5,17.5 -17.5,42.5 0,25 17.5,42.5 17.5,17.5 42.5,17.5 25,0 42.5,-17.5 z m 240,0 Q 660,-475 660,-500 660,-525 642.5,-542.5 625,-560 600,-560 q -25,0 -42.5,17.5 -17.5,17.5 -17.5,42.5 0,25 17.5,42.5 17.5,17.5 42.5,17.5 25,0 42.5,-17.5 z M 320,-280 h 320 v -80 H 320 Z m -80,80 H 720 V -680 H 240 Z m 240,-240 z"
           id="path7"
           style="fill:#005f5f;fill-opacity:1" /></g><g
         style="fill:#6e6e6e;fill-opacity:1"
         id="g11"
         transform="matrix(0.025,0,0,0.025,607.49412,282.67365)"><path
           d="m 380,-360 q 42,0 71,-29 l 160,-160 q 29,-29 29,-71 0,-42 -29,-71 -29,-29 -71,-29 -42,0 -71,29 -37,-13 -73,-6 -36,7 -61,32 -25,25 -32,61 -7,36 6,73 -29,29 -29,71 0,42 29,71 29,29 71,29 z M 240,-80 V -252 Q 183,-304 151.5,-373.5 120,-443 120,-520 q 0,-150 105,-255 105,-105 255,-105 125,0 221.5,73.5 Q 798,-733 827,-615 l 52,205 q 5,19 -7,34.5 -12,15.5 -32,15.5 h -80 v 120 q 0,33 -23.5,56.5 Q 713,-160 680,-160 h -80 v 80 h -80 v -160 h 160 v -200 h 108 l -38,-155 q -23,-91 -98,-148 -75,-57 -172,-57 -116,0 -198,81 -82,81 -82,197 0,60 24.5,114 24.5,54 69.5,96 l 26,24 v 208 z m 254,-360 z"
           id="path10"
           style="fill:#6e6e6e;fill-opacity:1" /></g></g></g></svg>
